<svg xmlns="http://www.w3.org/2000/svg" fill="none" viewBox="0 0 44 55" width="44" height="55">
<path clip-rule="evenodd" fill="#98a0ab" fill-rule="evenodd" d="M 0.631348 12.4674 L 22.253 0.636353 L 43.3926 12.5845 V 16.7428 H 40.02 V 31.4436 H 3.94379 V 16.7428 H 0.631348 V 12.4674 Z M 22.2514 5.09148 L 8.339 12.9396 V 27.6989 H 35.8631 V 12.9396 L 22.2514 5.09148 Z M 14.8522 14.9287 V 18.5599 H 29.2465 V 14.9287 H 14.8522 Z M 14.8522 23.9677 V 20.3366 H 29.2465 V 23.9677 H 14.8522 Z M 20.5058 40.2378 H 19.8566 V 34.9091 H 20.5058 V 40.2378 Z M 4.6025 37.903 H 6.81675 V 37.3583 H 4.6025 V 35.7348 H 7.13958 V 35.1866 H 3.92875 V 40.2378 H 7.17467 V 39.6931 H 4.6025 V 37.903 Z M 8.09406 36.9316 C 7.82035 37.2739 7.68349 37.74 7.68349 38.3297 V 38.3748 C 7.68349 38.9576 7.81918 39.426 8.09055 39.7798 C 8.36426 40.1314 8.73038 40.3072 9.1889 40.3072 C 9.62403 40.3072 9.9726 40.1684 10.2346 39.8909 V 41.681 H 10.8838 V 36.4841 H 10.2872 L 10.2592 36.8622 C 9.9995 36.5639 9.64508 36.4147 9.19592 36.4147 C 8.73505 36.4147 8.36777 36.587 8.09406 36.9316 Z M 8.60639 39.4156 C 8.42391 39.1704 8.33268 38.8328 8.33268 38.4026 C 8.33268 37.9215 8.42508 37.5584 8.6099 37.3132 C 8.79471 37.0658 9.04386 36.942 9.35733 36.942 C 9.73632 36.942 10.0287 37.1074 10.2346 37.4381 V 39.2768 C 10.0311 39.6145 9.73632 39.7833 9.35032 39.7833 C 9.03918 39.7833 8.7912 39.6607 8.60639 39.4156 Z M 14.2701 39.8666 C 14.0174 40.1603 13.6466 40.3072 13.1577 40.3072 C 12.753 40.3072 12.4442 40.1915 12.2313 39.9602 C 12.0207 39.7267 11.9143 39.382 11.912 38.9264 V 36.4841 H 12.5611 V 38.9091 C 12.5611 39.478 12.7951 39.7625 13.263 39.7625 C 13.7589 39.7625 14.0888 39.5798 14.2525 39.2144 V 36.4841 H 14.9017 V 40.2378 H 14.2841 L 14.2701 39.8666 Z M 18.1441 39.8423 C 18.1675 40.0319 18.1979 40.1638 18.2354 40.2378 H 18.9161 V 40.1823 C 18.8272 39.9787 18.7828 39.7047 18.7828 39.3601 V 37.6324 C 18.7734 37.2531 18.6448 36.9559 18.3968 36.7408 C 18.1488 36.5234 17.8061 36.4147 17.3686 36.4147 C 17.0926 36.4147 16.8387 36.4656 16.6071 36.5674 C 16.3779 36.6691 16.1954 36.8079 16.0597 36.9837 C 15.9264 37.1571 15.8597 37.3375 15.8597 37.5249 H 16.5124 C 16.5124 37.3607 16.5908 37.2207 16.7475 37.1051 C 16.9043 36.9894 17.0984 36.9316 17.33 36.9316 C 17.5944 36.9316 17.7944 36.9987 17.9301 37.1328 C 18.0658 37.2647 18.1336 37.4428 18.1336 37.6671 V 37.962 H 17.502 C 16.9569 37.962 16.5335 38.0707 16.2317 38.2881 C 15.9322 38.5032 15.7825 38.8062 15.7825 39.197 C 15.7825 39.5185 15.9018 39.7845 16.1404 39.9949 C 16.3814 40.2031 16.689 40.3072 17.0633 40.3072 C 17.4821 40.3072 17.8424 40.1522 18.1441 39.8423 Z M 17.7371 39.5925 C 17.5546 39.6966 17.3616 39.7486 17.1581 39.7486 C 16.9452 39.7486 16.7709 39.692 16.6352 39.5786 C 16.4995 39.4653 16.4317 39.308 16.4317 39.1068 C 16.4317 38.6466 16.8294 38.4164 17.6248 38.4164 H 18.1336 V 39.1866 C 18.0517 39.3531 17.9196 39.4884 17.7371 39.5925 Z M 7.60629 46.2777 C 7.77473 45.9076 7.85895 45.4751 7.85895 44.9802 V 44.661 C 7.85895 44.1684 7.77473 43.7371 7.60629 43.367 C 7.43785 42.9946 7.1969 42.7113 6.88342 42.517 C 6.57228 42.3205 6.21201 42.2222 5.80261 42.2222 C 5.40023 42.2222 5.0423 42.3216 4.72883 42.5205 C 4.41769 42.7171 4.17673 43.0016 4.00595 43.3739 C 3.83517 43.7463 3.74979 44.1753 3.74979 44.661 V 45.0253 C 3.75447 45.5017 3.84219 45.9215 4.01297 46.2846 C 4.18608 46.6454 4.42822 46.9241 4.73935 47.1207 C 5.0505 47.315 5.40725 47.4121 5.80963 47.4121 C 6.22137 47.4121 6.58163 47.315 6.89043 47.1207 C 7.19924 46.9264 7.43785 46.6454 7.60629 46.2777 Z M 6.82376 43.2768 C 7.06706 43.596 7.18871 44.0551 7.18871 44.6541 V 45.0288 C 7.18169 45.6139 7.05887 46.0637 6.82025 46.3783 C 6.58163 46.6905 6.24476 46.8466 5.80963 46.8466 C 5.37684 46.8466 5.03646 46.6813 4.78848 46.3505 C 4.54284 46.0175 4.42002 45.5607 4.42002 44.9802 V 44.609 C 4.42704 44.04 4.5522 43.596 4.7955 43.2768 C 5.04114 42.9553 5.37684 42.7946 5.80261 42.7946 C 6.24008 42.7946 6.58046 42.9553 6.82376 43.2768 Z M 11.9751 45.5075 C 11.9751 46.0788 11.843 46.539 11.5786 46.8882 C 11.3142 47.2375 10.9563 47.4121 10.5048 47.4121 C 10.0439 47.4121 9.68134 47.2675 9.41699 46.9784 V 48.7859 H 8.76781 V 43.589 H 9.36084 L 9.39243 44.0053 C 9.65678 43.6815 10.0241 43.5196 10.4943 43.5196 C 10.9505 43.5196 11.3107 43.6896 11.5751 44.0296 C 11.8418 44.3696 11.9751 44.8426 11.9751 45.4485 V 45.5075 Z M 11.3259 45.4347 C 11.3259 45.0114 11.2347 44.6772 11.0522 44.432 C 10.8698 44.1869 10.6194 44.0643 10.3013 44.0643 C 9.90826 44.0643 9.6135 44.2366 9.41699 44.5812 V 46.3748 C 9.61116 46.7171 9.90826 46.8882 10.3083 46.8882 C 10.6194 46.8882 10.8662 46.7668 11.0487 46.524 C 11.2335 46.2788 11.3259 45.9157 11.3259 45.4347 Z M 15.6141 46.8882 C 15.8784 46.539 16.0106 46.0788 16.0106 45.5075 V 45.4485 C 16.0106 44.8426 15.8773 44.3696 15.6106 44.0296 C 15.3462 43.6896 14.9859 43.5196 14.5298 43.5196 C 14.0595 43.5196 13.6922 43.6815 13.4279 44.0053 L 13.3963 43.589 H 12.8033 V 48.7859 H 13.4525 V 46.9784 C 13.7168 47.2675 14.0794 47.4121 14.5403 47.4121 C 14.9918 47.4121 15.3497 47.2375 15.6141 46.8882 Z M 15.0877 44.432 C 15.2702 44.6772 15.3614 45.0114 15.3614 45.4347 C 15.3614 45.9157 15.269 46.2788 15.0842 46.524 C 14.9017 46.7668 14.6549 46.8882 14.3438 46.8882 C 13.9437 46.8882 13.6466 46.7171 13.4525 46.3748 V 44.5812 C 13.649 44.2366 13.9437 44.0643 14.3368 44.0643 C 14.6549 44.0643 14.9052 44.1869 15.0877 44.432 Z M 16.6668 45.4312 C 16.6668 45.0634 16.7393 44.7327 16.8844 44.439 C 17.0317 44.1453 17.2353 43.9186 17.4949 43.759 C 17.757 43.5994 18.0552 43.5196 18.3898 43.5196 C 18.9068 43.5196 19.3244 43.6966 19.6425 44.0504 C 19.963 44.4043 20.1233 44.875 20.1233 45.4624 V 45.5075 C 20.1233 45.8729 20.0519 46.2013 19.9092 46.4928 C 19.7688 46.7819 19.5665 47.0074 19.3021 47.1693 C 19.0401 47.3312 18.7383 47.4121 18.3968 47.4121 C 17.8821 47.4121 17.4645 47.2352 17.144 46.8813 C 16.8259 46.5275 16.6668 46.0591 16.6668 45.4763 V 45.4312 Z M 17.3195 45.5075 C 17.3195 45.9238 17.4166 46.258 17.6107 46.5101 C 17.8073 46.7622 18.0693 46.8882 18.3968 46.8882 C 18.7266 46.8882 18.9887 46.761 19.1828 46.5066 C 19.377 46.2499 19.4741 45.8914 19.4741 45.4312 C 19.4741 45.0195 19.3747 44.6865 19.1758 44.432 C 18.9793 44.1753 18.7173 44.047 18.3898 44.047 C 18.0693 44.047 17.8108 44.173 17.6143 44.4251 C 17.4177 44.6772 17.3195 45.038 17.3195 45.5075 Z M 22.4533 44.1406 C 22.5679 44.1406 22.6744 44.1487 22.7726 44.1649 V 43.5682 C 22.7071 43.5358 22.6112 43.5196 22.4849 43.5196 C 22.0942 43.5196 21.7924 43.6873 21.5795 44.0227 L 21.569 43.589 H 20.9374 V 47.3427 H 21.5866 V 44.6784 C 21.7386 44.3199 22.0275 44.1406 22.4533 44.1406 Z M 24.4289 42.6801 V 43.589 H 25.1378 V 44.0851 H 24.4289 V 46.413 C 24.4289 46.5633 24.4605 46.6766 24.5237 46.7529 C 24.5868 46.827 24.6945 46.864 24.8465 46.864 C 24.9214 46.864 25.0243 46.8501 25.1553 46.8223 V 47.3427 C 24.9846 47.389 24.8185 47.4121 24.657 47.4121 C 24.3669 47.4121 24.1482 47.3254 24.0008 47.1519 C 23.8534 46.9784 23.7798 46.7321 23.7798 46.413 V 44.0851 H 23.0885 V 43.589 H 23.7798 V 42.6801 H 24.4289 Z M 27.131 47.4121 C 27.6199 47.4121 27.9907 47.2652 28.2433 46.9715 L 28.2574 47.3427 H 28.875 V 43.589 H 28.2258 V 46.3193 C 28.062 46.6847 27.7322 46.8674 27.2362 46.8674 C 26.7683 46.8674 26.5344 46.583 26.5344 46.014 V 43.589 H 25.8852 V 46.0314 C 25.8876 46.487 25.994 46.8316 26.2045 47.0652 C 26.4174 47.2965 26.7262 47.4121 27.131 47.4121 Z M 30.4786 43.589 L 30.4997 44.0608 C 30.7898 43.7 31.1688 43.5196 31.6366 43.5196 C 32.4391 43.5196 32.8438 43.9672 32.8508 44.8622 V 47.3427 H 32.2016 V 44.8588 C 32.1993 44.5882 32.1361 44.3881 32.0121 44.2586 C 31.8905 44.1291 31.6998 44.0643 31.4401 44.0643 C 31.2296 44.0643 31.0448 44.1198 30.8857 44.2308 C 30.7266 44.3419 30.6026 44.4876 30.5137 44.668 V 47.3427 H 29.8645 V 43.589 H 30.4786 Z M 33.886 47.3427 H 34.5352 V 43.589 H 33.886 V 47.3427 Z M 33.9281 42.3297 C 33.8649 42.4014 33.8333 42.4893 33.8333 42.5934 C 33.8333 42.6974 33.8649 42.7842 33.9281 42.8536 C 33.9936 42.9229 34.0895 42.9576 34.2158 42.9576 C 34.3422 42.9576 34.4381 42.9229 34.5036 42.8536 C 34.5691 42.7842 34.6018 42.6974 34.6018 42.5934 C 34.6018 42.4893 34.5691 42.4014 34.5036 42.3297 C 34.4381 42.258 34.3422 42.2222 34.2158 42.2222 C 34.0895 42.2222 33.9936 42.258 33.9281 42.3297 Z M 36.4582 42.6801 V 43.589 H 37.167 V 44.0851 H 36.4582 V 46.413 C 36.4582 46.5633 36.4897 46.6766 36.5529 46.7529 C 36.6161 46.827 36.7237 46.864 36.8757 46.864 C 36.9506 46.864 37.0535 46.8501 37.1845 46.8223 V 47.3427 C 37.0138 47.389 36.8477 47.4121 36.6862 47.4121 C 36.3962 47.4121 36.1774 47.3254 36.03 47.1519 C 35.8827 46.9784 35.809 46.7321 35.809 46.413 V 44.0851 H 35.1177 V 43.589 H 35.809 V 42.6801 H 36.4582 Z M 40.055 43.589 L 39.1707 46.4026 L 38.2232 43.589 H 37.5144 L 38.8689 47.3011 L 38.725 47.6827 C 38.6455 47.9163 38.5437 48.077 38.4197 48.1649 C 38.2981 48.2528 38.1273 48.2967 37.9074 48.2967 L 37.732 48.2829 V 48.8032 L 37.9741 48.8484 L 38.0969 48.8588 C 38.6116 48.8588 38.987 48.5465 39.2233 47.9221 L 40.7498 43.589 H 40.055 Z M 4.60601 53.903 H 7.02729 V 54.4476 H 3.92875 V 49.3965 H 4.60601 V 53.903 Z M 8.01335 54.0175 C 8.33619 54.3505 8.75494 54.517 9.26961 54.517 C 9.90593 54.517 10.3832 54.2753 10.7013 53.792 L 10.3048 53.4867 C 10.1855 53.6393 10.0463 53.7619 9.88721 53.8544 C 9.72813 53.9469 9.53396 53.9932 9.3047 53.9932 C 8.98186 53.9932 8.71517 53.8799 8.50462 53.6532 C 8.29642 53.4242 8.18763 53.1247 8.17828 52.7547 H 10.7505 V 52.4875 C 10.7505 51.8885 10.6136 51.4283 10.3399 51.1068 C 10.0662 50.7853 9.68251 50.6246 9.1889 50.6246 C 8.88712 50.6246 8.60639 50.7078 8.34671 50.8744 C 8.08938 51.0386 7.88819 51.2675 7.74315 51.5613 C 7.60044 51.8527 7.52909 52.1846 7.52909 52.5569 V 52.6749 C 7.52909 53.2346 7.69051 53.6821 8.01335 54.0175 Z M 8.52919 51.4364 C 8.70698 51.2467 8.92688 51.1519 9.1889 51.1519 C 9.46027 51.1519 9.6755 51.2421 9.83458 51.4225 C 9.99365 51.6006 10.0826 51.8527 10.1013 52.1788 V 52.2274 H 8.19933 C 8.24144 51.8874 8.35139 51.6237 8.52919 51.4364 Z M 12.119 50.694 L 12.1401 51.1658 C 12.4301 50.805 12.8091 50.6246 13.277 50.6246 C 14.0794 50.6246 14.4841 51.0721 14.4912 51.9672 V 54.4476 H 13.842 V 51.9637 C 13.8396 51.6931 13.7765 51.493 13.6525 51.3635 C 13.5308 51.234 13.3402 51.1692 13.0805 51.1692 C 12.8699 51.1692 12.6851 51.2248 12.5261 51.3358 C 12.367 51.4468 12.243 51.5925 12.1541 51.7729 V 54.4476 H 11.5049 V 50.694 H 12.119 Z M 15.7264 51.1519 C 15.4503 51.5011 15.3123 51.9637 15.3123 52.5396 V 52.5882 C 15.3123 53.1617 15.4503 53.6266 15.7264 53.9828 C 16.0047 54.3389 16.3638 54.517 16.8037 54.517 C 17.2669 54.517 17.6283 54.3598 17.888 54.0452 L 17.9196 54.4476 H 18.5161 V 49.1189 H 17.8669 V 51.0756 C 17.6072 50.7749 17.2552 50.6246 16.8107 50.6246 C 16.3638 50.6246 16.0024 50.8004 15.7264 51.1519 Z M 16.2282 53.6116 C 16.0504 53.371 15.9615 53.038 15.9615 52.6124 C 15.9615 52.136 16.0504 51.7764 16.2282 51.5335 C 16.406 51.2907 16.6539 51.1692 16.9721 51.1692 C 17.3745 51.1692 17.6727 51.3462 17.8669 51.7 V 53.4242 C 17.6774 53.7897 17.3768 53.9724 16.9651 53.9724 C 16.6516 53.9724 16.406 53.8521 16.2282 53.6116 Z M 21.1023 54.517 C 20.5876 54.517 20.1689 54.3505 19.8461 54.0175 C 19.5232 53.6821 19.3618 53.2346 19.3618 52.6749 V 52.5569 C 19.3618 52.1846 19.4331 51.8527 19.5758 51.5613 C 19.7209 51.2675 19.9221 51.0386 20.1794 50.8744 C 20.4391 50.7078 20.7198 50.6246 21.0216 50.6246 C 21.5152 50.6246 21.8989 50.7853 22.1726 51.1068 C 22.4463 51.4283 22.5832 51.8885 22.5832 52.4875 V 52.7547 H 20.011 C 20.0203 53.1247 20.1291 53.4242 20.3373 53.6532 C 20.5479 53.8799 20.8146 53.9932 21.1374 53.9932 C 21.3667 53.9932 21.5608 53.9469 21.7199 53.8544 C 21.879 53.7619 22.0182 53.6393 22.1375 53.4867 L 22.534 53.792 C 22.2159 54.2753 21.7386 54.517 21.1023 54.517 Z M 21.0216 51.1519 C 20.7596 51.1519 20.5397 51.2467 20.3619 51.4364 C 20.1841 51.6237 20.0741 51.8874 20.032 52.2274 H 21.934 V 52.1788 C 21.9153 51.8527 21.8264 51.6006 21.6673 51.4225 C 21.5082 51.2421 21.293 51.1519 21.0216 51.1519 Z M 24.8535 51.2456 C 24.9682 51.2456 25.0746 51.2537 25.1729 51.2699 V 50.6732 C 25.1074 50.6408 25.0115 50.6246 24.8851 50.6246 C 24.4944 50.6246 24.1927 50.7923 23.9798 51.1276 L 23.9692 50.694 H 23.3376 V 54.4476 H 23.9868 V 51.7833 C 24.1389 51.4248 24.4278 51.2456 24.8535 51.2456 Z" />
</svg>