<?xml version="1.0" encoding="utf-8"?>
<!-- Generator: Adobe Illustrator 24.1.2, SVG Export Plug-In . SVG Version: 6.00 Build 0)  -->
<svg version="1.1" id="Layer_1" xmlns="http://www.w3.org/2000/svg" xmlns:xlink="http://www.w3.org/1999/xlink" x="0px" y="0px"
	 viewBox="0 0 502.48 185.29" style="enable-background:new 0 0 502.48 185.29;" xml:space="preserve">
<style type="text/css">
	.st0{fill:#7399C6;}
	.st1{fill:#22263F;}
</style>
<g>
	<g>
		<rect x="461.73" y="77.27" class="st0" width="20.28" height="20.63"/>
		<rect x="461.73" y="30.47" class="st0" width="20.28" height="20.28"/>
		<g>
			<path class="st1" d="M24.57,0.13H0.13v102.1h16.99v-76.1l28.78,76.1h10.4l28.95-76.1v76.1h16.81V0.13H77.61L51.09,73.46
				L24.57,0.13 M294.29,79.35c-6.41,5.72-13.17,8.67-20.11,8.67c-12.83,0-22.88-11.09-22.88-25.31c0-15.08,9.53-25.65,22.88-25.65
				c6.93,0,13.52,2.43,18.55,6.76l8.49-12.48c-8.32-6.76-16.99-9.88-28.08-9.88c-22.71,0-38.48,16.81-38.48,41.25
				c0,23.92,15.95,41.08,38.48,41.08c11.09,0,21.67-4.16,29.99-11.96L294.29,79.35z M148.33,21.63
				c-10.57,0.35-20.97,3.99-29.29,10.4l8.32,12.48c0,0,9.36-7.8,20.8-7.8c9.01,0,12.65,4.51,12.65,12.48v4.51h-17.85
				c-17.16,0-28.08,9.88-28.08,24.44c0,14.73,10.4,25.65,28.25,25.65c7.28,0,14.39-3.12,17.68-7.8v6.24h16.64V50.06
				C177.45,31.34,167.57,21.63,148.33,21.63z M232.4,23.19c-3.99-1.04-7.63-1.56-11.44-1.56c-18.72,0-29.99,10.75-29.99,28.95v51.66
				h16.12V51.62c0-10.23,6.24-14.91,15.43-14.91c2.25,0,4.68,0.35,6.76,1.04L232.4,23.19z M405.05,44.51
				c0-4.33,4.16-7.97,10.92-7.97c11.61,0,20.97,7.45,20.97,7.45l8.67-12.48c-8.67-6.24-18.2-9.88-29.12-9.88
				c-16.64,0-27.91,10.75-27.91,22.88c0,31.55,42.99,21.15,42.99,35.88c0,4.16-4.51,8.67-11.79,8.67c-13,0-24.61-9.71-24.61-9.71
				l-8.67,12.83c9.36,7.28,20.8,11.61,32.59,11.61c17.68,0,29.12-11.96,29.12-23.92C448.21,50.06,405.05,59.59,405.05,44.51z
				 M339.7,103.79c7.8,0,14.91-3.12,18.72-7.97v6.41h16.12V23.01h-16.12v50.44c0,9.01-8.32,15.6-16.29,15.6
				c-7.28,0-14.91-5.03-14.91-15.6V23.01H311.1v53.22C311.1,92.7,322.02,103.79,339.7,103.79z M161.16,76.58
				c0,7.45-8.15,13.52-16.47,13.52c-8.84,0-14.04-4.51-14.04-11.79c0-5.37,5.03-10.92,14.39-10.92h16.12V76.58z M150.24,174.52h9.01
				v-42.12h-9.01V174.52z M177.63,175.38c3.64,0,6.76-1.73,8.67-4.85l0.52,3.99h7.63v-42.12h-9.19v15.08
				c-1.73-2.6-4.33-3.99-7.8-3.99c-7.45,0-11.79,5.72-11.79,15.95S170,175.38,177.63,175.38z M434.52,155.1
				c0.52-2.6,2.43-4.33,4.85-4.33c2.6,0,3.99,1.39,3.99,3.99v19.76h9.19v-20.45c0-7.11-3.29-10.57-10.05-10.57
				c-3.12,0-6.07,1.73-7.97,4.33v-15.43h-9.19v42.12h9.19V155.1z M16.77,175.38c7.63,0,12.13-5.89,12.13-15.95
				s-4.33-15.95-11.96-15.95c-3.29,0-5.89,1.21-7.63,3.64v-14.73H0.13v42.12h7.63l0.52-3.99C10.18,173.48,13.3,175.38,16.77,175.38z
				 M95.29,175.38c4.68,0,10.23-0.87,13.52-2.08v-21.67h-15.6v7.28h7.28v8.49c-1.56,0.17-3.29,0.35-4.85,0.35
				c-7.8,0-10.4-2.95-10.4-12.31c0-10.05,3.12-13.87,11.27-13.87c2.95,0,6.24,0.69,9.36,1.91l1.91-7.11
				c-2.77-1.56-7.45-2.43-12.13-2.43c-13.52,0-19.93,6.93-19.93,21.15C75.7,169.14,81.77,175.38,95.29,175.38z M344.21,175.38
				c10.23,0,15.43-4.33,15.43-12.65c0-6.93-3.12-10.4-10.57-11.96l-4.16-0.87c-2.95-0.69-3.99-1.56-3.99-3.99
				c0-2.95,1.91-4.33,6.07-4.33c2.95,0,6.59,0.87,9.54,2.08l1.73-7.28c-2.95-1.56-7.63-2.43-11.96-2.43
				c-9.36,0-14.73,4.51-14.73,12.31c0,6.41,3.47,10.4,10.23,11.79l4.33,1.04c3.12,0.69,4.16,1.73,4.16,3.81
				c0,3.29-2.43,4.85-7.28,4.85c-3.12,0-6.93-0.87-10.23-2.43l-2.08,7.11C334.5,174.34,339.35,175.38,344.21,175.38z M411.12,175.38
				c3.29,0,6.41-0.69,8.84-1.73l-1.73-6.59c-2.08,0.69-3.81,1.04-5.55,1.04c-5.03,0-6.93-2.25-6.93-8.49c0-6.24,2.08-9.01,7.11-9.01
				c1.56,0,3.29,0.35,5.2,1.04l1.73-6.59c-2.43-1.21-5.2-1.73-8.32-1.73c-9.71,0-15.08,5.89-15.08,16.29
				C396.38,170.18,401.24,175.38,411.12,175.38z M202.07,174.52h9.19V155.1c0.69-2.77,2.6-4.33,5.03-4.33s3.29,1.21,3.29,4.16v19.59
				h9.19V155.1c0.52-2.6,2.43-4.33,4.85-4.33c2.6,0,3.47,1.21,3.47,4.16v19.59h9.19v-20.28c0-7.28-3.12-10.75-9.54-10.75
				c-3.64,0-7.11,2.08-8.84,5.37c-1.21-3.64-4.16-5.37-8.49-5.37c-3.81,0-7.28,2.25-9.01,5.89l-0.69-5.03h-7.63V174.52z
				 M261.18,175.21c3.99,0,7.11-1.91,9.01-5.2l0.69,4.51h7.63v-19.24c0-8.49-3.64-11.79-12.65-11.79c-3.81,0-8.15,0.69-11.79,1.91
				l1.73,6.76c3.29-1.04,6.41-1.56,9.01-1.56c3.99,0,5.03,1.21,5.03,5.55v0.17h-5.2c-8.84,0-12.83,3.12-12.83,9.88
				C251.82,172.09,255.11,175.21,261.18,175.21z M286.14,174.52h9.19V155.1c0.52-2.6,2.43-4.33,4.85-4.33c2.6,0,3.99,1.39,3.99,3.99
				v19.76h9.19v-20.45c0-7.11-3.29-10.57-10.05-10.57c-3.81,0-7.28,2.25-8.84,5.55l-0.69-4.68h-7.63V174.52z M469.01,175.38
				c8.84,0,13-3.12,13-9.88c0-5.55-1.91-7.63-9.19-9.36l-2.6-0.52c-2.25-0.52-3.29-1.39-3.29-2.77c0-1.73,1.39-2.6,4.33-2.6
				c2.25,0,5.55,0.69,8.15,1.56l1.73-6.41c-3.29-1.39-6.59-1.91-10.57-1.91c-7.45,0-11.61,3.47-11.61,9.71
				c0,5.2,2.43,8.15,8.15,9.19l3.47,0.87c2.6,0.52,3.29,1.21,3.29,2.6c0,1.91-1.39,2.77-4.51,2.77c-2.95,0-6.24-0.69-9.19-2.08
				l-1.91,6.59C460.52,174.34,465.03,175.38,469.01,175.38z M144.17,159.43c0-10.23-5.03-15.95-14.39-15.95
				c-9.36,0-14.39,5.72-14.39,15.95s5.03,15.95,14.39,15.95C139.15,175.38,144.17,169.66,144.17,159.43z M373.5,175.21
				c3.99,0,7.11-1.91,9.01-5.2l0.69,4.51h7.63v-19.24c0-8.49-3.64-11.79-12.65-11.79c-3.81,0-8.15,0.69-11.79,1.91l1.73,6.76
				c3.29-1.04,6.41-1.56,9.01-1.56c3.99,0,5.03,1.21,5.03,5.55v0.17h-5.2c-8.84,0-12.83,3.12-12.83,9.88
				C364.14,172.09,367.44,175.21,373.5,175.21z M49.01,185.09l13.17-40.73H52.13l-6.07,21.84l-5.72-21.84h-9.88l8.84,28.43h4.68
				l-4.33,12.31H49.01z M134.81,159.43c0,6.41-1.39,9.01-5.03,9.01c-3.64,0-5.03-2.6-5.03-9.01c0-6.41,1.39-9.01,5.03-9.01
				C133.43,150.42,134.81,153.02,134.81,159.43z M14.17,168.1c-2.6,0-4.16-1.39-4.85-3.99v-9.53c0.69-2.43,2.6-3.81,4.85-3.81
				c3.64,0,5.37,2.77,5.37,8.67C19.54,165.33,17.81,168.1,14.17,168.1z M180.23,168.1c-3.47,0-5.2-2.77-5.2-8.67
				c0-5.89,1.73-8.67,5.37-8.67c2.08,0,3.81,1.39,4.85,3.47v9.88C184.56,166.71,182.83,168.1,180.23,168.1z M376.62,168.62
				c-2.43,0-3.64-1.21-3.64-3.47c0-2.6,1.56-3.81,4.68-3.81h4.51v2.6C381.48,166.89,379.4,168.62,376.62,168.62z M264.3,168.62
				c-2.43,0-3.64-1.21-3.64-3.47c0-2.6,1.56-3.81,4.68-3.81h4.51v2.6C269.15,166.89,267.07,168.62,264.3,168.62z"/>
		</g>
	</g>
</g>
<g>
	<defs>
		<path id="SVGID_1_" d="M491.17,138.42h1.05c0.74,0,1.59-0.2,1.59-1.08c0-0.8-0.77-0.99-1.45-0.99h-1.19V138.42z M489.87,142.52
			v-7.27h2.56c1.36,0,2.7,0.57,2.7,2.13c0,1.05-0.65,1.73-1.68,1.96l1.96,3.18h-1.59l-1.7-3.04h-0.94v3.04H489.87z M486.94,138.91
			c0,2.98,2.44,5.46,5.46,5.46s5.46-2.47,5.46-5.46c0-3.01-2.44-5.46-5.46-5.46S486.94,135.89,486.94,138.91z M485.92,138.91
			c0-3.58,2.9-6.45,6.48-6.45s6.48,2.87,6.48,6.45s-2.9,6.39-6.48,6.39S485.92,142.49,485.92,138.91z"/>
	</defs>
	<use xlink:href="#SVGID_1_"  style="overflow:visible;fill-rule:evenodd;clip-rule:evenodd;fill:#22263F;"/>
	<clipPath id="SVGID_2_">
		<use xlink:href="#SVGID_1_"  style="overflow:visible;"/>
	</clipPath>
</g>
</svg>
