<svg width="315" height="190" viewBox="0 0 315 190" fill="none" xmlns="http://www.w3.org/2000/svg">
<g id="norton_secure_seal">
<path id="Combined Shape" fill-rule="evenodd" clip-rule="evenodd" d="M58.073 148H261.927C291.192 148 315 124.222 315 94.999C315 65.7758 291.192 42 261.927 42H58.073C28.8084 42 5 65.7758 5 94.999C5 124.222 28.8084 148 58.073 148ZM9 94.9995C9 67.9803 30.9646 46 57.9613 46H262.04C289.034 46 311 67.9803 311 94.9995C311 122.018 289.034 144 262.04 144H57.9613C30.9646 144 9 122.018 9 94.9995Z" fill="#c9ccd1"/>
<path id="Fill 3" fill-rule="evenodd" clip-rule="evenodd" d="M237.499 86.9413C233.392 86.9413 230.059 83.613 230.059 79.5045C230.059 75.392 233.392 72.0628 237.499 72.0628C241.607 72.0628 244.941 75.392 244.941 79.5045C244.941 83.613 241.607 86.9413 237.499 86.9413ZM237.499 65C229.493 65 223 71.4937 223 79.5045C223 87.5113 229.493 94 237.499 94C245.511 94 252 87.5113 252 79.5045C252 71.4937 245.511 65 237.499 65Z" fill="#c9ccd1"/>
<path id="Fill 4" fill-rule="evenodd" clip-rule="evenodd" d="M171.496 86.9413C167.394 86.9413 164.062 83.613 164.062 79.5045C164.062 75.392 167.394 72.0628 171.496 72.0628C175.608 72.0628 178.937 75.392 178.937 79.5045C178.937 83.613 175.608 86.9413 171.496 86.9413ZM171.496 65C163.491 65 157 71.4937 157 79.5045C157 87.5113 163.491 94 171.496 94C179.507 94 186 87.5113 186 79.5045C186 71.4937 179.507 65 171.496 65Z" fill="#c9ccd1"/>
<path id="Fill 5" fill-rule="evenodd" clip-rule="evenodd" d="M222.05 87.3793C221.147 87.6441 219.765 87.9049 219.24 87.9049C216.799 87.9049 216.268 87.0574 216.268 84.7034V71.4089H222.106V65.8533H216.268V58H209.699L208.319 65.8533H203.742V65.8574H203.37C199.628 65.8754 196.805 68.1762 194.995 71.78L192.711 65.8533H188V93.4654H196.051V81.4517C196.051 75.3967 199.601 71.5282 203.809 71.4089H208.213V85.1357C208.213 91.5969 211.5 94 216.851 94C219.613 94 221.73 93.4123 223 92.988L222.05 87.3793Z" fill="#c9ccd1"/>
<path id="Fill 6" fill-rule="evenodd" clip-rule="evenodd" d="M261 74.8587V94H253V66H257.856L259.482 70.2768" fill="#c9ccd1"/>
<path id="Fill 7" fill-rule="evenodd" clip-rule="evenodd" d="M260 69.8449C262.424 67.088 265.74 65 269.625 65C276.268 65 279 70.1907 279 75.0048V93H270.79V75.2364C270.79 72.891 268.799 71.6179 266.638 71.6179C264.339 71.6179 262.861 72.9089 261.562 74.2873" fill="#c9ccd1"/>
<path id="Fill 8" fill-rule="evenodd" clip-rule="evenodd" d="M125 56H134.058L146.497 79.2617V56H154V93H145.793L132.506 67.4226V93H125V56Z" fill="#c9ccd1"/>
<path id="Fill 9" fill-rule="evenodd" clip-rule="evenodd" d="M302 42V43.3518H300.19V50H298.777V43.3518H297V42H302Z" fill="#c9ccd1"/>
<path id="Fill 10" fill-rule="evenodd" clip-rule="evenodd" d="M303 50V42H305.089L306.477 47.2384L307.889 42H310V50H308.727V43.7421H308.69L307.073 50H305.941L304.309 43.7421H304.273V50H303Z" fill="#c9ccd1"/>
<path id="Fill 11" fill-rule="evenodd" clip-rule="evenodd" d="M123 127.265L124.898 124.297C126.441 125.443 128.755 126.506 131.578 126.506C134.321 126.506 136.015 125.257 136.015 123.088C136.015 120.592 133.875 119.932 130.358 118.702C127.205 117.588 124.104 115.989 124.104 111.499C124.104 107.291 127.405 105 131.846 105C134.799 105 136.974 105.584 138.727 106.621L137.208 109.779C135.738 109.011 133.981 108.49 131.918 108.49C129.443 108.49 127.959 109.428 127.959 111.4C127.959 113.717 129.679 114.306 132.914 115.374C136.287 116.474 140 118.042 140 123.017C140 127.225 137.007 130 131.636 130C127.651 130 124.724 128.617 123 127.265Z" fill="#c9ccd1"/>
<path id="Fill 12" fill-rule="evenodd" clip-rule="evenodd" d="M147 105H161.375V108.318H151.091V114.869H159.213V118.116H151.091V125.687H162V129H147V105Z" fill="#c9ccd1"/>
<path id="Fill 13" fill-rule="evenodd" clip-rule="evenodd" d="M168 117.549C168 110.457 171.254 105 177.75 105C180.66 105 182.959 105.961 184.578 107.929L182.278 110.704C180.888 109.284 179.709 108.588 177.815 108.588C174.001 108.588 172.241 111.844 172.241 117.86C172.241 123.505 174.099 126.367 177.849 126.367C179.932 126.367 181.396 125.225 182.679 123.806L185 126.505C183.312 128.585 181.198 130 177.815 130C171.117 130 168 124.672 168 117.549Z" fill="#c9ccd1"/>
<path id="Fill 14" fill-rule="evenodd" clip-rule="evenodd" d="M191 119.623V105H195.134V120.275C195.134 123.532 195.959 125.663 199.476 125.663C202.961 125.663 203.825 123.532 203.825 120.275V105H208V119.623C208 125.492 205.689 129 199.445 129C193.303 129 191 125.492 191 119.623Z" fill="#c9ccd1"/>
<path id="Fill 15" fill-rule="evenodd" clip-rule="evenodd" d="M223.726 115.687C226.786 115.687 228.361 114.698 228.361 111.927C228.361 109.262 226.755 108.312 223.966 108.312H220.086V115.687H223.726ZM233 129H228.535L223.9 118.822H220.086V129H216V105H223.874C228.748 105 232.554 106.738 232.554 111.997C232.554 115.586 230.391 117.386 227.982 118.242L233 129Z" fill="#c9ccd1"/>
<path id="Fill 16" fill-rule="evenodd" clip-rule="evenodd" d="M240 105H254.384V108.318H244.09V114.869H252.207V118.116H244.09V125.687H255V129H240V105Z" fill="#c9ccd1"/>
<path id="Combined Shape_2" fill-rule="evenodd" clip-rule="evenodd" d="M267.796 105H262V129H267.996C275.299 129 279 124.734 279 116.912C279 109.235 275.363 105 267.796 105ZM274.84 116.912C274.84 123.098 272.987 125.684 267.568 125.684H265.947V108.312H268.057C273.386 108.312 274.84 111.484 274.84 116.912Z" fill="#c9ccd1"/>
<path id="Combined Shape_3" fill-rule="evenodd" clip-rule="evenodd" d="M0 95.498C0 127.201 25.7988 153 57.5025 153C89.2022 153 114.995 127.201 115 95.498C114.995 63.7941 89.2022 38 57.5025 38C25.7988 38 0 63.7941 0 95.498ZM29.4226 67.4238C36.7972 60.058 46.5909 56 57.0025 56C67.4091 56 77.2028 60.058 84.5774 67.4198C91.938 74.7935 95.996 84.5873 96 94.999C95.996 105.409 91.938 115.203 84.5814 122.572C77.2068 129.938 67.4131 133.996 57.0025 134C46.5859 133.996 36.7922 129.938 29.4226 122.577C22.057 115.203 18 105.409 18 94.999C18 84.5873 22.057 74.7935 29.4226 67.4238Z" fill="#c9ccd1"/>
<path id="Fill 21" fill-rule="evenodd" clip-rule="evenodd" d="M120 33H124V29H120V33Z" fill="#c9ccd1"/>
<path id="Fill 22" fill-rule="evenodd" clip-rule="evenodd" d="M120 24H124V20H120V24Z" fill="#c9ccd1"/>
<path id="Fill 23" fill-rule="evenodd" clip-rule="evenodd" d="M107 38H111V34H107V38Z" fill="#c9ccd1"/>
<path id="Fill 24" fill-rule="evenodd" clip-rule="evenodd" d="M99 46H103V42H99V46Z" fill="#c9ccd1"/>
<path id="Fill 25" fill-rule="evenodd" clip-rule="evenodd" d="M111 42H116V38H111V42Z" fill="#c9ccd1"/>
<path id="Fill 26" fill-rule="evenodd" clip-rule="evenodd" d="M95 42H99V38H95V42Z" fill="#c9ccd1"/>
<path id="Fill 27" fill-rule="evenodd" clip-rule="evenodd" d="M107 46H111V42H107V46Z" fill="#c9ccd1"/>
<path id="Fill 28" fill-rule="evenodd" clip-rule="evenodd" d="M116 29H120V25H116V29Z" fill="#c9ccd1"/>
<path id="Fill 29" fill-rule="evenodd" clip-rule="evenodd" d="M107 33H115V29H107V33Z" fill="#c9ccd1"/>
<path id="Fill 30" fill-rule="evenodd" clip-rule="evenodd" d="M103 42H107V33H103V42Z" fill="#c9ccd1"/>
<path id="Fill 31" fill-rule="evenodd" clip-rule="evenodd" d="M102.929 46V50.2064H98.7121V46H91.7164V49.0303H87.9672V52.7687H92.1532V56.9351H87.9672V52.7687H83.5167V59.3043H79.3087V63.4747H76.517V67.6631H73.4459C69.9971 72.7846 61.3517 88.7491 58.7413 95.2488C49.3195 82.1605 42.0063 76.973 36.2457 75.0968C33.1405 74.1627 29.3962 77.541 34.5558 82.8566C46.4077 95.8698 50.1399 106.645 53.7429 115.241C55.6491 119.773 64.1924 120.478 65.9083 115.862C69.5564 106.108 74.8452 95.1477 81.1087 86.1459V81.4824H84.4523V77.276H87.9672V72.4016H92.1662V67.7021H87.9191V63.4307H92.1662V67.7021H96.3211L96.3131 63.4747H99.6427V58.3712H103.392V54.8609H107V46H102.929Z" fill="#c9ccd1"/>
<path id="poweredbySymantec" fill-rule="evenodd" clip-rule="evenodd" d="M132.25 183.253H135.445V162H132.081V171.474H131.997C131.829 171.249 131.614 171.015 131.353 170.771C131.091 170.527 130.778 170.303 130.413 170.096C130.049 169.89 129.624 169.717 129.138 169.576C128.652 169.436 128.101 169.365 127.484 169.365C126.531 169.365 125.653 169.548 124.849 169.914C124.046 170.279 123.354 170.78 122.775 171.418C122.195 172.055 121.747 172.805 121.429 173.667C121.112 174.529 120.953 175.456 120.953 176.45C120.953 177.443 121.107 178.375 121.415 179.247C121.724 180.118 122.163 180.878 122.733 181.524C123.303 182.171 123.994 182.686 124.807 183.07C125.62 183.454 126.54 183.647 127.568 183.647C128.521 183.647 129.414 183.44 130.245 183.028C131.077 182.616 131.726 182.016 132.193 181.229H132.25V183.253ZM25.2237 169.759V171.643H25.3078C25.476 171.38 25.6955 171.113 25.9665 170.841C26.2375 170.57 26.5692 170.326 26.9617 170.11C27.3541 169.895 27.7979 169.717 28.2932 169.576C28.7884 169.436 29.3444 169.365 29.9611 169.365C30.9142 169.365 31.7925 169.548 32.5961 169.914C33.3997 170.279 34.0911 170.78 34.6704 171.418C35.2498 172.055 35.6983 172.805 36.016 173.667C36.3337 174.529 36.4925 175.456 36.4925 176.45C36.4925 177.443 36.3383 178.375 36.03 179.247C35.7216 180.118 35.2825 180.878 34.7125 181.524C34.1425 182.171 33.451 182.686 32.6381 183.07C31.8252 183.454 30.9048 183.647 29.877 183.647C28.9239 183.647 28.0502 183.45 27.256 183.056C26.4617 182.663 25.8497 182.129 25.4199 181.454H25.3638V190H22V169.759H25.2237ZM33.0726 176.45C33.0726 175.925 32.9932 175.405 32.8343 174.89C32.6755 174.374 32.4372 173.91 32.1195 173.498C31.8018 173.086 31.4 172.753 30.9142 172.5C30.4283 172.247 29.8583 172.12 29.2042 172.12C28.5875 172.12 28.0362 172.252 27.5503 172.514C27.0644 172.776 26.6486 173.114 26.3029 173.526C25.9572 173.938 25.6955 174.407 25.518 174.932C25.3405 175.456 25.2517 175.981 25.2517 176.506C25.2517 177.031 25.3405 177.551 25.518 178.066C25.6955 178.582 25.9572 179.046 26.3029 179.458C26.6486 179.87 27.0644 180.203 27.5503 180.456C28.0362 180.709 28.5875 180.835 29.2042 180.835C29.8583 180.835 30.4283 180.704 30.9142 180.442C31.4 180.179 31.8018 179.842 32.1195 179.43C32.4372 179.017 32.6755 178.549 32.8343 178.024C32.9932 177.499 33.0726 176.975 33.0726 176.45ZM39.534 173.54C39.1509 174.412 38.9593 175.382 38.9593 176.45C38.9593 177.518 39.1509 178.493 39.534 179.373C39.9171 180.254 40.4357 181.009 41.0897 181.637C41.7438 182.264 42.5194 182.756 43.4164 183.112C44.3134 183.469 45.2665 183.647 46.2756 183.647C47.2848 183.647 48.2379 183.469 49.1349 183.112C50.0319 182.756 50.8075 182.264 51.4616 181.637C52.1156 181.009 52.6342 180.254 53.0173 179.373C53.4004 178.493 53.592 177.518 53.592 176.45C53.592 175.382 53.4004 174.412 53.0173 173.54C52.6342 172.669 52.1156 171.924 51.4616 171.305C50.8075 170.687 50.0319 170.209 49.1349 169.871C48.2379 169.534 47.2848 169.365 46.2756 169.365C45.2665 169.365 44.3134 169.534 43.4164 169.871C42.5194 170.209 41.7438 170.687 41.0897 171.305C40.4357 171.924 39.9171 172.669 39.534 173.54ZM42.3792 176.45C42.3792 176.975 42.4586 177.499 42.6175 178.024C42.7763 178.549 43.0146 179.017 43.3323 179.43C43.65 179.842 44.0518 180.179 44.5377 180.442C45.0236 180.704 45.6029 180.835 46.2756 180.835C46.9484 180.835 47.5277 180.704 48.0136 180.442C48.4995 180.179 48.9013 179.842 49.219 179.43C49.5367 179.017 49.775 178.549 49.9338 178.024C50.0927 177.499 50.1721 176.975 50.1721 176.45C50.1721 175.925 50.0927 175.405 49.9338 174.89C49.775 174.374 49.5367 173.91 49.219 173.498C48.9013 173.086 48.4995 172.753 48.0136 172.5C47.5277 172.247 46.9484 172.12 46.2756 172.12C45.6029 172.12 45.0236 172.247 44.5377 172.5C44.0518 172.753 43.65 173.086 43.3323 173.498C43.0146 173.91 42.7763 174.374 42.6175 174.89C42.4586 175.405 42.3792 175.925 42.3792 176.45ZM58.5817 169.759H54.9375L59.6188 183.253H63.0387L66.0662 173.807H66.1222L69.1777 183.253H72.5976L77.2509 169.759H73.7469L70.8877 179.43H70.8316L67.9163 169.759H64.3282L61.4409 179.43H61.3849L58.5817 169.759ZM88.8561 175.157C88.8561 174.726 88.7954 174.313 88.6739 173.92C88.5525 173.526 88.3609 173.179 88.0993 172.88C87.8376 172.58 87.5059 172.341 87.1041 172.163C86.7024 171.985 86.2305 171.896 85.6885 171.896C84.6794 171.896 83.8244 172.2 83.1236 172.809C82.4228 173.418 82.035 174.201 81.9603 175.157H88.8561ZM92.22 177.124V176.675C92.22 175.456 92.0565 174.393 91.7294 173.484C91.4024 172.575 90.9492 171.816 90.3699 171.207C89.7905 170.598 89.1038 170.139 88.3095 169.829C87.5153 169.52 86.651 169.365 85.7166 169.365C84.7074 169.365 83.7684 169.539 82.8994 169.886C82.0304 170.232 81.2782 170.72 80.6428 171.347C80.0074 171.975 79.5075 172.734 79.1431 173.624C78.7787 174.515 78.5965 175.503 78.5965 176.59C78.5965 177.696 78.7787 178.685 79.1431 179.556C79.5075 180.428 80.0121 181.163 80.6568 181.763C81.3015 182.363 82.0631 182.827 82.9414 183.155C83.8197 183.483 84.7822 183.647 85.8287 183.647C88.3516 183.647 90.2764 182.747 91.6033 180.948L89.3607 179.149C88.987 179.692 88.5104 180.118 87.9311 180.428C87.3518 180.737 86.6416 180.892 85.8007 180.892C85.3148 180.892 84.8476 180.807 84.3991 180.639C83.9506 180.47 83.5488 180.24 83.1937 179.95C82.8386 179.659 82.5536 179.313 82.3387 178.91C82.1238 178.507 81.9977 178.062 81.9603 177.574H92.1919C92.2106 177.424 92.22 177.274 92.22 177.124ZM95.4717 169.759H98.6954V172.008H98.7514C99.1252 171.221 99.6484 170.584 100.321 170.096C100.994 169.609 101.779 169.365 102.676 169.365C102.807 169.365 102.947 169.37 103.096 169.38C103.246 169.389 103.377 169.412 103.489 169.45V172.542C103.265 172.486 103.073 172.448 102.914 172.43C102.755 172.411 102.601 172.402 102.452 172.402C101.685 172.402 101.069 172.542 100.602 172.823C100.134 173.104 99.7699 173.442 99.5083 173.835C99.2466 174.229 99.0691 174.632 98.9757 175.044C98.8822 175.456 98.8355 175.784 98.8355 176.028V183.253H95.4717V169.759ZM114.968 173.92C115.089 174.313 115.15 174.726 115.15 175.157H108.254C108.329 174.201 108.717 173.418 109.418 172.809C110.118 172.2 110.973 171.896 111.982 171.896C112.524 171.896 112.996 171.985 113.398 172.163C113.8 172.341 114.132 172.58 114.393 172.88C114.655 173.179 114.846 173.526 114.968 173.92ZM118.514 176.675V177.124C118.514 177.274 118.505 177.424 118.486 177.574H108.254C108.292 178.062 108.418 178.507 108.633 178.91C108.848 179.313 109.133 179.659 109.488 179.95C109.843 180.24 110.244 180.47 110.693 180.639C111.142 180.807 111.609 180.892 112.095 180.892C112.936 180.892 113.646 180.737 114.225 180.428C114.804 180.118 115.281 179.692 115.655 179.149L117.897 180.948C116.57 182.747 114.646 183.647 112.123 183.647C111.076 183.647 110.114 183.483 109.235 183.155C108.357 182.827 107.595 182.363 106.951 181.763C106.306 181.163 105.801 180.428 105.437 179.556C105.073 178.685 104.89 177.696 104.89 176.59C104.89 175.503 105.073 174.515 105.437 173.624C105.801 172.734 106.301 171.975 106.937 171.347C107.572 170.72 108.324 170.232 109.193 169.886C110.062 169.539 111.001 169.365 112.011 169.365C112.945 169.365 113.809 169.52 114.603 169.829C115.398 170.139 116.084 170.598 116.664 171.207C117.243 171.816 117.696 172.575 118.023 173.484C118.35 174.393 118.514 175.456 118.514 176.675ZM124.373 176.45C124.373 176.975 124.452 177.499 124.611 178.024C124.77 178.549 125.008 179.017 125.326 179.43C125.643 179.842 126.045 180.179 126.531 180.442C127.017 180.704 127.587 180.835 128.241 180.835C128.858 180.835 129.409 180.709 129.895 180.456C130.381 180.203 130.797 179.87 131.142 179.458C131.488 179.046 131.75 178.582 131.927 178.066C132.105 177.551 132.193 177.031 132.193 176.506C132.193 175.981 132.105 175.456 131.927 174.932C131.75 174.407 131.488 173.938 131.142 173.526C130.797 173.114 130.381 172.776 129.895 172.514C129.409 172.252 128.858 172.12 128.241 172.12C127.587 172.12 127.017 172.247 126.531 172.5C126.045 172.753 125.643 173.086 125.326 173.498C125.008 173.91 124.77 174.374 124.611 174.89C124.452 175.405 124.373 175.925 124.373 176.45ZM149.966 171.474V162H146.602V183.253H149.798V181.229H149.854C150.321 182.016 150.97 182.616 151.802 183.028C152.633 183.44 153.526 183.647 154.479 183.647C155.507 183.647 156.427 183.454 157.24 183.07C158.053 182.686 158.744 182.171 159.314 181.524C159.884 180.878 160.324 180.118 160.632 179.247C160.94 178.375 161.094 177.443 161.094 176.45C161.094 175.456 160.936 174.529 160.618 173.667C160.3 172.805 159.852 172.055 159.272 171.418C158.693 170.78 158.002 170.279 157.198 169.914C156.394 169.548 155.516 169.365 154.563 169.365C153.946 169.365 153.395 169.436 152.909 169.576C152.423 169.717 151.998 169.89 151.634 170.096C151.269 170.303 150.956 170.527 150.695 170.771C150.433 171.015 150.218 171.249 150.05 171.474H149.966ZM157.675 176.45C157.675 175.925 157.595 175.405 157.436 174.89C157.277 174.374 157.039 173.91 156.721 173.498C156.404 173.086 156.002 172.753 155.516 172.5C155.03 172.247 154.46 172.12 153.806 172.12C153.189 172.12 152.638 172.252 152.152 172.514C151.666 172.776 151.251 173.114 150.905 173.526C150.559 173.938 150.297 174.407 150.12 174.932C149.942 175.456 149.854 175.981 149.854 176.506C149.854 177.031 149.942 177.551 150.12 178.066C150.297 178.582 150.559 179.046 150.905 179.458C151.251 179.87 151.666 180.203 152.152 180.456C152.638 180.709 153.189 180.835 153.806 180.835C154.46 180.835 155.03 180.704 155.516 180.442C156.002 180.179 156.404 179.842 156.721 179.43C157.039 179.017 157.277 178.549 157.436 178.024C157.595 177.499 157.675 176.975 157.675 176.45ZM166.056 169.759H162.328L168.102 183.253L167.43 184.968C167.28 185.324 167.14 185.633 167.009 185.896C166.878 186.158 166.729 186.378 166.561 186.556C166.392 186.734 166.187 186.865 165.944 186.95C165.701 187.034 165.402 187.076 165.047 187.076C164.86 187.076 164.659 187.062 164.444 187.034C164.229 187.006 164.01 186.954 163.785 186.88L163.505 189.803C163.804 189.878 164.098 189.93 164.388 189.958C164.678 189.986 164.963 190 165.243 190C165.991 190 166.631 189.916 167.163 189.747C167.696 189.578 168.158 189.33 168.551 189.002C168.943 188.674 169.28 188.271 169.56 187.793C169.84 187.315 170.102 186.767 170.345 186.149L176.708 169.759H173.204L169.868 179.57H169.812L166.056 169.759ZM196.022 167.51C195.648 167.023 195.12 166.615 194.438 166.287C193.756 165.959 193.07 165.795 192.378 165.795C191.967 165.795 191.556 165.847 191.145 165.95C190.734 166.053 190.36 166.212 190.023 166.428C189.687 166.643 189.411 166.924 189.196 167.271C188.982 167.618 188.874 168.035 188.874 168.522C188.874 168.972 188.967 169.356 189.154 169.675C189.341 169.993 189.598 170.265 189.925 170.49C190.252 170.715 190.649 170.912 191.117 171.08C191.584 171.249 192.098 171.418 192.658 171.586C193.294 171.793 193.952 172.027 194.635 172.289C195.317 172.552 195.943 172.898 196.513 173.329C197.083 173.76 197.55 174.304 197.914 174.96C198.279 175.616 198.461 176.431 198.461 177.406C198.461 178.474 198.265 179.406 197.872 180.203C197.48 180.999 196.957 181.66 196.303 182.185C195.648 182.71 194.882 183.103 194.004 183.365C193.126 183.628 192.201 183.759 191.229 183.759C189.939 183.759 188.678 183.52 187.444 183.042C186.211 182.564 185.202 181.857 184.417 180.92L186.94 178.558C187.426 179.233 188.075 179.767 188.888 180.161C189.701 180.554 190.5 180.751 191.285 180.751C191.696 180.751 192.116 180.699 192.546 180.596C192.976 180.493 193.364 180.32 193.71 180.076C194.055 179.833 194.336 179.528 194.551 179.163C194.765 178.797 194.873 178.343 194.873 177.799C194.873 177.274 194.751 176.839 194.508 176.492C194.266 176.145 193.938 175.845 193.527 175.592C193.116 175.339 192.63 175.119 192.07 174.932L190.304 174.341C189.706 174.154 189.108 173.929 188.51 173.667C187.912 173.404 187.374 173.058 186.898 172.627C186.421 172.195 186.033 171.666 185.734 171.038C185.435 170.41 185.286 169.628 185.286 168.691C185.286 167.679 185.496 166.807 185.917 166.076C186.337 165.345 186.888 164.741 187.571 164.263C188.253 163.785 189.028 163.429 189.897 163.195C190.766 162.961 191.649 162.843 192.546 162.843C193.555 162.843 194.579 163.021 195.616 163.378C196.653 163.734 197.555 164.268 198.321 164.98L196.022 167.51ZM203.535 169.759H199.807L205.581 183.253L204.908 184.968C204.759 185.324 204.619 185.633 204.488 185.896C204.357 186.158 204.208 186.378 204.039 186.556C203.871 186.734 203.666 186.865 203.423 186.95C203.18 187.034 202.881 187.076 202.526 187.076C202.339 187.076 202.138 187.062 201.923 187.034C201.708 187.006 201.488 186.954 201.264 186.88L200.984 189.803C201.283 189.878 201.577 189.93 201.867 189.958C202.157 189.986 202.441 190 202.722 190C203.469 190 204.109 189.916 204.642 189.747C205.175 189.578 205.637 189.33 206.03 189.002C206.422 188.674 206.758 188.271 207.039 187.793C207.319 187.315 207.581 186.767 207.824 186.149L214.187 169.759H210.683L207.347 179.57H207.291L203.535 169.759ZM232.267 169.365C233.146 169.365 233.898 169.52 234.524 169.829C235.15 170.139 235.664 170.546 236.066 171.052C236.468 171.558 236.762 172.139 236.949 172.795C237.136 173.451 237.229 174.126 237.229 174.819V183.253H233.865V175.775C233.865 175.382 233.837 174.969 233.781 174.538C233.725 174.107 233.604 173.718 233.417 173.371C233.23 173.025 232.973 172.739 232.646 172.514C232.319 172.289 231.884 172.177 231.342 172.177C230.819 172.177 230.371 172.289 229.997 172.514C229.623 172.739 229.315 173.029 229.072 173.386C228.829 173.742 228.651 174.14 228.539 174.58C228.427 175.021 228.371 175.456 228.371 175.888V183.253H225.007V175.1C225.007 174.257 224.806 173.559 224.405 173.006C224.003 172.453 223.372 172.177 222.512 172.177C222.008 172.177 221.569 172.284 221.195 172.5C220.821 172.716 220.517 172.992 220.284 173.329C220.05 173.667 219.873 174.056 219.751 174.496C219.63 174.936 219.569 175.382 219.569 175.831V183.253H216.205V169.759H219.401V171.924H219.457C219.606 171.586 219.807 171.268 220.06 170.968C220.312 170.668 220.611 170.396 220.957 170.153C221.302 169.909 221.699 169.717 222.148 169.576C222.596 169.436 223.092 169.365 223.634 169.365C224.68 169.365 225.549 169.6 226.241 170.068C226.932 170.537 227.465 171.155 227.838 171.924C228.287 171.099 228.885 170.467 229.632 170.026C230.38 169.586 231.258 169.365 232.267 169.365ZM249.423 181.538H249.507V183.253H252.647V175.044C252.647 174.369 252.558 173.695 252.38 173.02C252.203 172.345 251.89 171.736 251.441 171.193C250.993 170.649 250.381 170.209 249.605 169.871C248.83 169.534 247.844 169.365 246.648 169.365C245.62 169.365 244.606 169.544 243.606 169.9C242.607 170.256 241.724 170.79 240.957 171.502L242.695 173.554C243.125 173.123 243.667 172.758 244.321 172.458C244.975 172.158 245.657 172.008 246.368 172.008C247.208 172.008 247.933 172.21 248.54 172.612C249.147 173.015 249.451 173.639 249.451 174.482V174.819C248.405 174.819 247.335 174.871 246.241 174.974C245.148 175.077 244.153 175.288 243.256 175.606C242.359 175.925 241.625 176.384 241.055 176.984C240.485 177.584 240.201 178.39 240.201 179.402C240.201 180.189 240.364 180.849 240.691 181.384C241.018 181.918 241.429 182.349 241.924 182.677C242.42 183.005 242.962 183.239 243.55 183.38C244.139 183.52 244.704 183.59 245.246 183.59C246.199 183.59 247.05 183.398 247.797 183.014C248.545 182.63 249.087 182.138 249.423 181.538ZM249.451 177.096H248.694C248.152 177.096 247.582 177.12 246.984 177.167C246.386 177.214 245.835 177.317 245.33 177.476C244.826 177.635 244.405 177.86 244.069 178.151C243.733 178.441 243.564 178.839 243.564 179.345C243.564 179.664 243.634 179.931 243.775 180.147C243.915 180.362 244.097 180.535 244.321 180.667C244.545 180.798 244.798 180.892 245.078 180.948C245.358 181.004 245.639 181.032 245.919 181.032C247.078 181.032 247.956 180.723 248.554 180.104C249.152 179.486 249.451 178.643 249.451 177.574V177.096ZM259.767 169.759H256.571V183.253H259.935V175.831C259.935 175.382 260 174.936 260.131 174.496C260.262 174.056 260.454 173.667 260.706 173.329C260.958 172.992 261.281 172.716 261.673 172.5C262.065 172.284 262.533 172.177 263.075 172.177C263.617 172.177 264.051 172.289 264.378 172.514C264.705 172.739 264.962 173.025 265.149 173.371C265.336 173.718 265.457 174.107 265.513 174.538C265.569 174.969 265.597 175.382 265.597 175.775V183.253H268.961V174.819C268.961 174.126 268.868 173.451 268.681 172.795C268.494 172.139 268.2 171.558 267.798 171.052C267.396 170.546 266.882 170.139 266.256 169.829C265.63 169.52 264.878 169.365 264 169.365C262.99 169.365 262.117 169.623 261.379 170.139C260.64 170.654 260.122 171.249 259.823 171.924H259.767V169.759ZM270.952 172.458V169.759H273.306V165.851H276.614V169.759H279.978V172.458H276.614V178.727C276.614 179.327 276.721 179.823 276.936 180.217C277.151 180.61 277.632 180.807 278.38 180.807C278.604 180.807 278.847 180.784 279.109 180.737C279.37 180.69 279.604 180.62 279.81 180.526L279.922 183.169C279.623 183.281 279.268 183.37 278.857 183.436C278.445 183.501 278.053 183.534 277.679 183.534C276.782 183.534 276.053 183.408 275.493 183.155C274.932 182.902 274.488 182.555 274.161 182.114C273.834 181.674 273.61 181.168 273.488 180.596C273.367 180.025 273.306 179.411 273.306 178.755V172.458H270.952ZM291.709 173.92C291.831 174.313 291.891 174.726 291.891 175.157H284.996C285.07 174.201 285.458 173.418 286.159 172.809C286.86 172.2 287.715 171.896 288.724 171.896C289.266 171.896 289.738 171.985 290.139 172.163C290.541 172.341 290.873 172.58 291.134 172.88C291.396 173.179 291.588 173.526 291.709 173.92ZM295.255 176.675V177.124C295.255 177.274 295.246 177.424 295.227 177.574H284.996C285.033 178.062 285.159 178.507 285.374 178.91C285.589 179.313 285.874 179.659 286.229 179.95C286.584 180.24 286.986 180.47 287.434 180.639C287.883 180.807 288.35 180.892 288.836 180.892C289.677 180.892 290.387 180.737 290.966 180.428C291.546 180.118 292.022 179.692 292.396 179.149L294.638 180.948C293.312 182.747 291.387 183.647 288.864 183.647C287.817 183.647 286.855 183.483 285.977 183.155C285.098 182.827 284.337 182.363 283.692 181.763C283.047 181.163 282.543 180.428 282.178 179.556C281.814 178.685 281.632 177.696 281.632 176.59C281.632 175.503 281.814 174.515 282.178 173.624C282.543 172.734 283.043 171.975 283.678 171.347C284.313 170.72 285.066 170.232 285.935 169.886C286.804 169.539 287.743 169.365 288.752 169.365C289.686 169.365 290.551 169.52 291.345 169.829C292.139 170.139 292.826 170.598 293.405 171.207C293.984 171.816 294.438 172.575 294.765 173.484C295.092 174.393 295.255 175.456 295.255 176.675ZM306.524 172.556C307.047 172.809 307.44 173.123 307.701 173.498L310 171.474C309.458 170.818 308.725 170.303 307.799 169.928C306.874 169.553 305.917 169.365 304.926 169.365C303.936 169.365 303.006 169.534 302.137 169.871C301.268 170.209 300.507 170.687 299.852 171.305C299.198 171.924 298.68 172.673 298.297 173.554C297.914 174.435 297.722 175.419 297.722 176.506C297.722 177.631 297.914 178.633 298.297 179.514C298.68 180.395 299.203 181.145 299.866 181.763C300.53 182.382 301.305 182.85 302.193 183.169C303.081 183.487 304.02 183.647 305.01 183.647C306.019 183.647 306.959 183.483 307.828 183.155C308.697 182.827 309.411 182.363 309.972 181.763L307.87 179.627C307.552 180.02 307.131 180.32 306.608 180.526C306.085 180.732 305.562 180.835 305.038 180.835C304.403 180.835 303.847 180.709 303.37 180.456C302.894 180.203 302.497 179.87 302.179 179.458C301.861 179.046 301.623 178.582 301.464 178.066C301.305 177.551 301.226 177.031 301.226 176.506C301.226 175.981 301.301 175.461 301.45 174.946C301.6 174.43 301.829 173.967 302.137 173.554C302.445 173.142 302.833 172.809 303.3 172.556C303.768 172.303 304.31 172.177 304.926 172.177C305.468 172.177 306.001 172.303 306.524 172.556Z" fill="#c9ccd1"/>
<path id="VERIFY&#226;&#150;&#182;" fill-rule="evenodd" clip-rule="evenodd" d="M281.026 17.6016L269.385 10.8828V24.3203L281.026 17.6016ZM202.096 12.672H199.84L204.32 24H206.064L210.608 12.672H208.432L205.28 21.392H205.216L202.096 12.672ZM220.9 12.672H213.396V24H221.188V22.208H215.412V19.008H220.612V17.312H215.412V14.432H220.9V12.672ZM224.856 12.672H228.792C229.325 12.672 229.843 12.728 230.344 12.84C230.845 12.952 231.291 13.136 231.68 13.392C232.069 13.648 232.381 13.984 232.616 14.4C232.851 14.816 232.968 15.3227 232.968 15.92C232.968 16.7413 232.736 17.4107 232.272 17.928C231.808 18.4453 231.176 18.7947 230.376 18.976L233.4 24H230.968L228.344 19.2H226.872V24H224.856V12.672ZM229.384 17.488C229.096 17.5307 228.808 17.552 228.52 17.552H226.872V14.368H228.696C228.952 14.368 229.216 14.3893 229.488 14.432C229.76 14.4747 230.003 14.5547 230.216 14.672C230.429 14.7893 230.605 14.9467 230.744 15.144C230.883 15.3413 230.952 15.5947 230.952 15.904C230.952 16.2453 230.877 16.5253 230.728 16.744C230.579 16.9627 230.389 17.1307 230.16 17.248C229.931 17.3653 229.672 17.4453 229.384 17.488ZM236.62 12.672H238.636V24H236.62V12.672ZM250.144 12.672H242.832V24H244.848V19.232H249.84V17.536H244.848V14.432H250.144V12.672ZM256.436 19.088L252.18 12.672H254.644L257.492 17.44L260.372 12.672H262.708L258.452 19.088V24H256.436V19.088Z" fill="#c9ccd1"/>
</g>
</svg>
